<svg xmlns="http://www.w3.org/2000/svg" viewBox="0 0 960 540" role="img" aria-label="Project screenshot placeholder">
  <defs>
    <linearGradient id="bg" x1="0%" y1="0%" x2="100%" y2="100%">
      <stop offset="0%" stop-color="#1a1c2e"/>
      <stop offset="100%" stop-color="#2a1f3d"/>
    </linearGradient>
    <linearGradient id="accent" x1="0%" y1="0%" x2="100%" y2="0%">
      <stop offset="0%" stop-color="#5b6abf"/>
      <stop offset="100%" stop-color="#8b5fcf"/>
    </linearGradient>
  </defs>
  <rect width="960" height="540" rx="12" fill="url(#bg)"/>
  <!-- Top bar -->
  <rect x="0" y="0" width="960" height="48" rx="12" fill="#13142a"/>
  <rect x="0" y="12" width="960" height="36" fill="#13142a"/>
  <circle cx="28" cy="24" r="6" fill="#ff5f57"/>
  <circle cx="50" cy="24" r="6" fill="#febc2e"/>
  <circle cx="72" cy="24" r="6" fill="#28c840"/>
  <rect x="340" y="14" width="280" height="20" rx="10" fill="#1e2040"/>
  <!-- Sidebar -->
  <rect x="0" y="48" width="200" height="492" fill="#111225"/>
  <rect x="20" y="72" width="120" height="12" rx="6" fill="#2a2d52"/>
  <rect x="20" y="100" width="160" height="10" rx="5" fill="#1e2040"/>
  <rect x="20" y="120" width="140" height="10" rx="5" fill="#1e2040"/>
  <rect x="20" y="140" width="150" height="10" rx="5" fill="#1e2040"/>
  <rect x="20" y="160" width="130" height="10" rx="5" fill="#1e2040"/>
  <rect x="20" y="196" width="100" height="12" rx="6" fill="#2a2d52"/>
  <rect x="20" y="224" width="160" height="10" rx="5" fill="#1e2040"/>
  <rect x="20" y="244" width="140" height="10" rx="5" fill="#1e2040"/>
  <rect x="20" y="264" width="150" height="10" rx="5" fill="#1e2040"/>
  <!-- Main content area -->
  <rect x="224" y="72" width="200" height="28" rx="6" fill="#2a2d52"/>
  <!-- Cards row -->
  <rect x="224" y="120" width="220" height="120" rx="10" fill="#1a1d3a"/>
  <rect x="464" y="120" width="220" height="120" rx="10" fill="#1a1d3a"/>
  <rect x="704" y="120" width="220" height="120" rx="10" fill="#1a1d3a"/>
  <!-- Card content -->
  <rect x="244" y="140" width="80" height="10" rx="5" fill="url(#accent)"/>
  <rect x="244" y="160" width="180" height="8" rx="4" fill="#2a2d52"/>
  <rect x="244" y="176" width="140" height="8" rx="4" fill="#2a2d52"/>
  <rect x="244" y="204" width="60" height="20" rx="10" fill="url(#accent)" opacity="0.6"/>
  <rect x="484" y="140" width="100" height="10" rx="5" fill="url(#accent)"/>
  <rect x="484" y="160" width="180" height="8" rx="4" fill="#2a2d52"/>
  <rect x="484" y="176" width="160" height="8" rx="4" fill="#2a2d52"/>
  <rect x="484" y="204" width="60" height="20" rx="10" fill="url(#accent)" opacity="0.6"/>
  <rect x="724" y="140" width="90" height="10" rx="5" fill="url(#accent)"/>
  <rect x="724" y="160" width="180" height="8" rx="4" fill="#2a2d52"/>
  <rect x="724" y="176" width="150" height="8" rx="4" fill="#2a2d52"/>
  <rect x="724" y="204" width="60" height="20" rx="10" fill="url(#accent)" opacity="0.6"/>
  <!-- Chart area -->
  <rect x="224" y="264" width="460" height="240" rx="10" fill="#1a1d3a"/>
  <polyline points="260,460 340,400 420,430 500,370 580,390 640,340" fill="none" stroke="url(#accent)" stroke-width="3" stroke-linecap="round" stroke-linejoin="round"/>
  <polyline points="260,460 340,440 420,450 500,420 580,430 640,410" fill="none" stroke="#3a3f6a" stroke-width="2" stroke-linecap="round" stroke-linejoin="round"/>
  <!-- Right panel -->
  <rect x="704" y="264" width="220" height="240" rx="10" fill="#1a1d3a"/>
  <circle cx="814" cy="360" r="50" fill="none" stroke="url(#accent)" stroke-width="8"/>
  <circle cx="814" cy="360" r="50" fill="none" stroke="#3a3f6a" stroke-width="8" stroke-dasharray="120 200" stroke-dashoffset="60"/>
  <rect x="724" y="430" width="180" height="8" rx="4" fill="#2a2d52"/>
  <rect x="724" y="448" width="140" height="8" rx="4" fill="#2a2d52"/>
  <rect x="724" y="466" width="160" height="8" rx="4" fill="#2a2d52"/>
</svg>
